<svg xmlns:xlink="http://www.w3.org/1999/xlink" width="512" xmlns="http://www.w3.org/2000/svg" height="512" id="screenshot-7a77ef3e-0a40-8034-8002-d76467da8560" viewBox="0 0 512 512" style="-webkit-print-color-adjust: exact;" fill="none" version="1.1"><g id="shape-7a77ef3e-0a40-8034-8002-d76467da8560"><defs><clipPath class="frame-clip-def frame-clip" id="frame-clip-7a77ef3e-0a40-8034-8002-d76467da8560-rumext-id-1"><rect rx="0" ry="0" x="0" y="0" width="512" height="512" transform="matrix(1.000000, 0.000000, 0.000000, 1.000000, 0.000000, 0.000000)" style="fill: rgb(0, 0, 0); fill-opacity: 1;"/></clipPath></defs><g clip-path="url(#frame-clip-7a77ef3e-0a40-8034-8002-d76467da8560-rumext-id-1)"><clipPath class="frame-clip-def frame-clip" id="frame-clip-7a77ef3e-0a40-8034-8002-d76467da8560-rumext-id-1"><rect rx="0" ry="0" x="0" y="0" width="512" height="512" transform="matrix(1.000000, 0.000000, 0.000000, 1.000000, 0.000000, 0.000000)" style="fill: rgb(0, 0, 0); fill-opacity: 1;"/></clipPath><g class="fills" id="fills-7a77ef3e-0a40-8034-8002-d76467da8560"><rect width="512" height="512" class="frame-background" x="0" transform="matrix(1.000000, 0.000000, 0.000000, 1.000000, 0.000000, 0.000000)" style="fill: rgb(0, 0, 0); fill-opacity: 1;" ry="0" rx="0" y="0"/></g><g class="frame-children"><g id="shape-7a77ef3e-0a40-8034-8002-d764f779139c" rx="0" ry="0" style="fill: rgb(0, 0, 0);"><g id="shape-7a77ef3e-0a40-8034-8002-d764f779d159"><g class="fills" id="fills-7a77ef3e-0a40-8034-8002-d764f779d159"><path fill-rule="evenodd" stroke-linecap="round" stroke-linejoin="round" rx="0" ry="0" d="M85.067,404.317L428.494,408.799L434.242,271.352L333.654,110.000L192.831,110.000L75.000,274.339L85.067,404.317ZZ" style="fill: rgb(193, 193, 193); fill-opacity: 1;"/></g><g id="strokes-7a77ef3e-0a40-8034-8002-d764f779d159" class="strokes"><g class="stroke-shape"><path fill-rule="evenodd" stroke-linecap="round" stroke-linejoin="round" rx="0" ry="0" d="M85.067,404.317L428.494,408.799L434.242,271.352L333.654,110.000L192.831,110.000L75.000,274.339L85.067,404.317ZZ" style="fill: none; stroke-width: 4; stroke: rgb(0, 0, 0);"/></g></g></g><g id="shape-7a77ef3e-0a40-8034-8002-d764f77a1be1"><g class="fills" id="fills-7a77ef3e-0a40-8034-8002-d764f77a1be1"><path fill-rule="evenodd" stroke-linecap="round" stroke-linejoin="round" rx="0" ry="0" d="M198.580,181.708L120.985,337.085L402.631,337.085L336.531,187.684L198.580,181.708ZZ" style="fill: rgb(193, 193, 193); fill-opacity: 1;"/></g><g id="strokes-7a77ef3e-0a40-8034-8002-d764f77a1be1" class="strokes"><g class="stroke-shape"><path fill-rule="evenodd" stroke-linecap="round" stroke-linejoin="round" rx="0" ry="0" d="M198.580,181.708L120.985,337.085L402.631,337.085L336.531,187.684L198.580,181.708ZZ" style="fill: none; stroke-width: 4; stroke: rgb(0, 0, 0);"/></g></g></g><g id="shape-7a77ef3e-0a40-8034-8002-d764f77b3797"><g class="fills" id="fills-7a77ef3e-0a40-8034-8002-d764f77b3797"><path fill-rule="evenodd" stroke-linecap="round" stroke-linejoin="round" rx="0" ry="0" d="M194.275,110.009L194.275,192.179L335.098,189.191L335.098,111.503L194.275,110.009ZZ" style="fill: rgb(193, 193, 193); fill-opacity: 1;"/></g><g id="strokes-7a77ef3e-0a40-8034-8002-d764f77b3797" class="strokes"><g class="stroke-shape"><path fill-rule="evenodd" stroke-linecap="round" stroke-linejoin="round" rx="0" ry="0" d="M194.275,110.009L194.275,192.179L335.098,189.191L335.098,111.503L194.275,110.009ZZ" style="fill: none; stroke-width: 2; stroke: rgb(0, 0, 0);"/></g></g></g></g><g id="shape-7a77ef3e-0a40-8034-8002-d764f77ad16f"><g class="fills" id="fills-7a77ef3e-0a40-8034-8002-d764f77ad16f"><path fill-rule="evenodd" stroke-linecap="round" stroke-linejoin="round" rx="0" ry="0" d="M75.000,271.000L84.437,403.975L426.476,408.457L437.981,274.008L296.780,272.831C297.013,274.694,297.158,276.574,297.157,278.452C297.507,297.851,283.581,316.270,265.409,320.610C249.016,324.914,230.499,317.690,221.088,303.028C215.127,294.130,212.810,282.844,214.236,272.177L75.000,271.000ZZ" style="fill: rgb(255, 255, 255);"/></g><g id="strokes-7a77ef3e-0a40-8034-8002-d764f77ad16f" class="strokes"><g class="stroke-shape"><path fill-rule="evenodd" stroke-linecap="round" stroke-linejoin="round" rx="0" ry="0" d="M75.000,271.000L84.437,403.975L426.476,408.457L437.981,274.008L296.780,272.831C297.013,274.694,297.158,276.574,297.157,278.452C297.507,297.851,283.581,316.270,265.409,320.610C249.016,324.914,230.499,317.690,221.088,303.028C215.127,294.130,212.810,282.844,214.236,272.177L75.000,271.000ZZ" style="fill: none; stroke-width: 4; stroke: rgb(0, 0, 0);"/></g></g></g></g></g></g></svg>