<?xml version="1.0" standalone="no"?>
<!DOCTYPE svg PUBLIC "-//W3C//DTD SVG 20010904//EN"
 "http://www.w3.org/TR/2001/REC-SVG-20010904/DTD/svg10.dtd">
<svg version="1.0" xmlns="http://www.w3.org/2000/svg"
 width="700.000000pt" height="700.000000pt" viewBox="0 0 700.000000 700.000000"
 preserveAspectRatio="xMidYMid meet">
<metadata>
Created by potrace 1.14, written by Peter Selinger 2001-2017
</metadata>
<g transform="translate(0.000000,700.000000) scale(0.100000,-0.100000)"
fill="#000000" stroke="none">
<path d="M0 3500 l0 -3500 3500 0 3500 0 0 3500 0 3500 -3500 0 -3500 0 0
-3500z m3903 1964 l657 -6 0 -514 0 -514 -47 0 c-27 0 -444 -9 -928 -20 -484
-11 -888 -20 -897 -20 -17 0 -18 33 -18 546 l0 546 288 -6 c158 -3 583 -9 945
-12z m-1540 -1582 l-278 -562 -472 2 c-259 2 -474 6 -478 10 -4 3 332 479 747
1057 l753 1051 3 -498 3 -497 -278 -563z m2910 413 l624 -1000 -375 -3 c-206
-1 -377 0 -379 2 -3 2 -118 261 -258 576 -139 314 -260 579 -269 589 -14 16
-16 67 -16 467 l1 449 24 -40 c14 -22 305 -490 648 -1040z m-448 -445 c131
-294 239 -540 242 -546 3 -9 -127 -12 -514 -10 l-518 1 -6 -115 c-5 -94 -11
-128 -34 -185 -78 -193 -231 -324 -418 -356 -188 -32 -399 57 -511 215 -73
102 -98 178 -105 326 l-6 125 -393 7 c-217 3 -396 8 -398 11 -3 3 111 236 252
519 l257 514 926 18 c509 9 937 18 951 19 14 2 28 0 32 -3 3 -3 113 -246 243
-540z m-2550 -596 l620 -6 1 -67 c6 -293 205 -538 484 -597 346 -73 687 199
708 564 l5 92 911 -6 c501 -4 920 -10 931 -13 20 -6 19 -16 -55 -886 l-75
-880 -115 -3 c-63 -2 -680 4 -1370 13 -690 9 -1677 22 -2192 29 -515 6 -939
14 -942 16 -4 5 -126 1676 -126 1733 l0 22 297 -2 c164 -1 577 -5 918 -9z"/>
</g>
</svg>
